<mxfile host="Electron" modified="2024-12-22T22:23:54.331Z" agent="Mozilla/5.0 (Windows NT 10.0; Win64; x64) AppleWebKit/537.36 (KHTML, like Gecko) draw.io/21.7.5 Chrome/114.0.5735.289 Electron/25.8.1 Safari/537.36" etag="CbZLrtNd00cHcDWlrAka" version="21.7.5" type="device">
  <diagram name="Страница — 1" id="04-mK-vSjc8HlCuZC0Yf">
    <mxGraphModel dx="705" dy="414" grid="1" gridSize="10" guides="1" tooltips="1" connect="1" arrows="1" fold="1" page="1" pageScale="1" pageWidth="827" pageHeight="1169" math="0" shadow="0">
      <root>
        <mxCell id="0" />
        <mxCell id="1" parent="0" />
        <mxCell id="U6gbGnjzzzYsf7bK20Zn-1" value="a0" style="ellipse;whiteSpace=wrap;html=1;aspect=fixed;" vertex="1" parent="1">
          <mxGeometry x="280" y="160" width="40" height="40" as="geometry" />
        </mxCell>
        <mxCell id="U6gbGnjzzzYsf7bK20Zn-2" value="a1" style="ellipse;whiteSpace=wrap;html=1;aspect=fixed;" vertex="1" parent="1">
          <mxGeometry x="400" y="280" width="40" height="40" as="geometry" />
        </mxCell>
        <mxCell id="U6gbGnjzzzYsf7bK20Zn-3" value="a2" style="ellipse;whiteSpace=wrap;html=1;aspect=fixed;" vertex="1" parent="1">
          <mxGeometry x="160" y="280" width="40" height="40" as="geometry" />
        </mxCell>
        <mxCell id="U6gbGnjzzzYsf7bK20Zn-4" value="a3" style="ellipse;whiteSpace=wrap;html=1;aspect=fixed;" vertex="1" parent="1">
          <mxGeometry x="400" y="440" width="40" height="40" as="geometry" />
        </mxCell>
        <mxCell id="U6gbGnjzzzYsf7bK20Zn-5" value="a4" style="ellipse;whiteSpace=wrap;html=1;aspect=fixed;" vertex="1" parent="1">
          <mxGeometry x="160" y="440" width="40" height="40" as="geometry" />
        </mxCell>
        <mxCell id="U6gbGnjzzzYsf7bK20Zn-6" value="a5" style="ellipse;whiteSpace=wrap;html=1;aspect=fixed;" vertex="1" parent="1">
          <mxGeometry x="400" y="600" width="40" height="40" as="geometry" />
        </mxCell>
        <mxCell id="U6gbGnjzzzYsf7bK20Zn-7" value="a6" style="ellipse;whiteSpace=wrap;html=1;aspect=fixed;" vertex="1" parent="1">
          <mxGeometry x="160" y="600" width="40" height="40" as="geometry" />
        </mxCell>
        <mxCell id="U6gbGnjzzzYsf7bK20Zn-8" value="" style="endArrow=classic;html=1;rounded=0;exitX=1;exitY=1;exitDx=0;exitDy=0;entryX=0;entryY=0;entryDx=0;entryDy=0;" edge="1" parent="1" source="U6gbGnjzzzYsf7bK20Zn-1" target="U6gbGnjzzzYsf7bK20Zn-2">
          <mxGeometry width="50" height="50" relative="1" as="geometry">
            <mxPoint x="360" y="270" as="sourcePoint" />
            <mxPoint x="410" y="220" as="targetPoint" />
          </mxGeometry>
        </mxCell>
        <mxCell id="U6gbGnjzzzYsf7bK20Zn-9" value="" style="curved=1;endArrow=classic;html=1;rounded=0;exitX=0;exitY=0;exitDx=0;exitDy=0;entryX=1;entryY=0;entryDx=0;entryDy=0;" edge="1" parent="1" source="U6gbGnjzzzYsf7bK20Zn-1" target="U6gbGnjzzzYsf7bK20Zn-1">
          <mxGeometry width="50" height="50" relative="1" as="geometry">
            <mxPoint x="360" y="270" as="sourcePoint" />
            <mxPoint x="410" y="220" as="targetPoint" />
            <Array as="points">
              <mxPoint x="270" y="120" />
              <mxPoint x="340" y="120" />
            </Array>
          </mxGeometry>
        </mxCell>
        <mxCell id="U6gbGnjzzzYsf7bK20Zn-10" value="x1" style="text;html=1;strokeColor=none;fillColor=none;align=center;verticalAlign=middle;whiteSpace=wrap;rounded=0;" vertex="1" parent="1">
          <mxGeometry x="310" y="180" width="60" height="30" as="geometry" />
        </mxCell>
        <mxCell id="U6gbGnjzzzYsf7bK20Zn-11" value="y1" style="text;html=1;strokeColor=none;fillColor=none;align=center;verticalAlign=middle;whiteSpace=wrap;rounded=0;" vertex="1" parent="1">
          <mxGeometry x="370" y="250" width="60" height="30" as="geometry" />
        </mxCell>
        <mxCell id="U6gbGnjzzzYsf7bK20Zn-13" value="x2 V x3 V x4 V x5" style="text;html=1;strokeColor=none;fillColor=none;align=center;verticalAlign=middle;whiteSpace=wrap;rounded=0;" vertex="1" parent="1">
          <mxGeometry x="270" y="90" width="60" height="30" as="geometry" />
        </mxCell>
        <mxCell id="U6gbGnjzzzYsf7bK20Zn-14" value="" style="curved=1;endArrow=classic;html=1;rounded=0;exitX=1;exitY=1;exitDx=0;exitDy=0;entryX=1;entryY=0;entryDx=0;entryDy=0;" edge="1" parent="1" source="U6gbGnjzzzYsf7bK20Zn-2" target="U6gbGnjzzzYsf7bK20Zn-4">
          <mxGeometry width="50" height="50" relative="1" as="geometry">
            <mxPoint x="310" y="420" as="sourcePoint" />
            <mxPoint x="360" y="370" as="targetPoint" />
            <Array as="points">
              <mxPoint x="480" y="360" />
            </Array>
          </mxGeometry>
        </mxCell>
        <mxCell id="U6gbGnjzzzYsf7bK20Zn-15" value="" style="curved=1;endArrow=classic;html=1;rounded=0;exitX=1;exitY=0;exitDx=0;exitDy=0;entryX=1;entryY=0.5;entryDx=0;entryDy=0;" edge="1" parent="1" source="U6gbGnjzzzYsf7bK20Zn-2" target="U6gbGnjzzzYsf7bK20Zn-2">
          <mxGeometry width="50" height="50" relative="1" as="geometry">
            <mxPoint x="510" y="270" as="sourcePoint" />
            <mxPoint x="560" y="220" as="targetPoint" />
            <Array as="points">
              <mxPoint x="480" y="240" />
              <mxPoint x="520" y="280" />
            </Array>
          </mxGeometry>
        </mxCell>
        <mxCell id="U6gbGnjzzzYsf7bK20Zn-16" value="x1 V x4" style="text;html=1;strokeColor=none;fillColor=none;align=center;verticalAlign=middle;whiteSpace=wrap;rounded=0;" vertex="1" parent="1">
          <mxGeometry x="430" y="230" width="60" height="30" as="geometry" />
        </mxCell>
        <mxCell id="U6gbGnjzzzYsf7bK20Zn-17" value="y1 V y4" style="text;html=1;strokeColor=none;fillColor=none;align=center;verticalAlign=middle;whiteSpace=wrap;rounded=0;" vertex="1" parent="1">
          <mxGeometry x="470" y="280" width="60" height="30" as="geometry" />
        </mxCell>
        <mxCell id="U6gbGnjzzzYsf7bK20Zn-18" value="x2" style="text;html=1;strokeColor=none;fillColor=none;align=center;verticalAlign=middle;whiteSpace=wrap;rounded=0;" vertex="1" parent="1">
          <mxGeometry x="430" y="310" width="60" height="30" as="geometry" />
        </mxCell>
        <mxCell id="U6gbGnjzzzYsf7bK20Zn-19" value="!y2 y3" style="text;html=1;strokeColor=none;fillColor=none;align=center;verticalAlign=middle;whiteSpace=wrap;rounded=0;" vertex="1" parent="1">
          <mxGeometry x="430" y="420" width="60" height="30" as="geometry" />
        </mxCell>
        <mxCell id="U6gbGnjzzzYsf7bK20Zn-20" value="" style="endArrow=classic;html=1;rounded=0;exitX=0;exitY=1;exitDx=0;exitDy=0;entryX=1;entryY=0;entryDx=0;entryDy=0;" edge="1" parent="1" source="U6gbGnjzzzYsf7bK20Zn-2" target="U6gbGnjzzzYsf7bK20Zn-5">
          <mxGeometry width="50" height="50" relative="1" as="geometry">
            <mxPoint x="320" y="410" as="sourcePoint" />
            <mxPoint x="370" y="360" as="targetPoint" />
          </mxGeometry>
        </mxCell>
        <mxCell id="U6gbGnjzzzYsf7bK20Zn-21" value="x3" style="text;html=1;strokeColor=none;fillColor=none;align=center;verticalAlign=middle;whiteSpace=wrap;rounded=0;" vertex="1" parent="1">
          <mxGeometry x="360" y="290" width="60" height="30" as="geometry" />
        </mxCell>
        <mxCell id="U6gbGnjzzzYsf7bK20Zn-22" value="y2 y3" style="text;html=1;strokeColor=none;fillColor=none;align=center;verticalAlign=middle;whiteSpace=wrap;rounded=0;" vertex="1" parent="1">
          <mxGeometry x="200" y="430" width="60" height="30" as="geometry" />
        </mxCell>
        <mxCell id="U6gbGnjzzzYsf7bK20Zn-23" value="" style="curved=1;endArrow=classic;html=1;rounded=0;entryX=0;entryY=0;entryDx=0;entryDy=0;exitX=0;exitY=1;exitDx=0;exitDy=0;" edge="1" parent="1" source="U6gbGnjzzzYsf7bK20Zn-3" target="U6gbGnjzzzYsf7bK20Zn-3">
          <mxGeometry width="50" height="50" relative="1" as="geometry">
            <mxPoint x="220" y="380" as="sourcePoint" />
            <mxPoint x="270" y="330" as="targetPoint" />
            <Array as="points">
              <mxPoint x="120" y="320" />
              <mxPoint x="120" y="280" />
            </Array>
          </mxGeometry>
        </mxCell>
        <mxCell id="U6gbGnjzzzYsf7bK20Zn-24" value="x1 V x4" style="text;html=1;strokeColor=none;fillColor=none;align=center;verticalAlign=middle;whiteSpace=wrap;rounded=0;" vertex="1" parent="1">
          <mxGeometry x="80" y="300" width="60" height="30" as="geometry" />
        </mxCell>
        <mxCell id="U6gbGnjzzzYsf7bK20Zn-25" value="y1 V y4" style="text;html=1;strokeColor=none;fillColor=none;align=center;verticalAlign=middle;whiteSpace=wrap;rounded=0;" vertex="1" parent="1">
          <mxGeometry x="110" y="260" width="60" height="30" as="geometry" />
        </mxCell>
        <mxCell id="U6gbGnjzzzYsf7bK20Zn-26" value="" style="curved=1;endArrow=classic;html=1;rounded=0;exitX=0;exitY=1;exitDx=0;exitDy=0;entryX=0;entryY=0;entryDx=0;entryDy=0;" edge="1" parent="1" source="U6gbGnjzzzYsf7bK20Zn-3" target="U6gbGnjzzzYsf7bK20Zn-5">
          <mxGeometry width="50" height="50" relative="1" as="geometry">
            <mxPoint x="220" y="380" as="sourcePoint" />
            <mxPoint x="270" y="330" as="targetPoint" />
            <Array as="points">
              <mxPoint x="120" y="380" />
            </Array>
          </mxGeometry>
        </mxCell>
        <mxCell id="U6gbGnjzzzYsf7bK20Zn-27" value="x3" style="text;html=1;strokeColor=none;fillColor=none;align=center;verticalAlign=middle;whiteSpace=wrap;rounded=0;" vertex="1" parent="1">
          <mxGeometry x="140" y="320" width="60" height="30" as="geometry" />
        </mxCell>
        <mxCell id="U6gbGnjzzzYsf7bK20Zn-28" value="y2 y3" style="text;html=1;strokeColor=none;fillColor=none;align=center;verticalAlign=middle;whiteSpace=wrap;rounded=0;" vertex="1" parent="1">
          <mxGeometry x="100" y="420" width="60" height="30" as="geometry" />
        </mxCell>
        <mxCell id="U6gbGnjzzzYsf7bK20Zn-29" value="" style="endArrow=classic;html=1;rounded=0;exitX=1;exitY=1;exitDx=0;exitDy=0;entryX=0;entryY=0;entryDx=0;entryDy=0;" edge="1" parent="1" source="U6gbGnjzzzYsf7bK20Zn-3" target="U6gbGnjzzzYsf7bK20Zn-4">
          <mxGeometry width="50" height="50" relative="1" as="geometry">
            <mxPoint x="220" y="380" as="sourcePoint" />
            <mxPoint x="270" y="330" as="targetPoint" />
          </mxGeometry>
        </mxCell>
        <mxCell id="U6gbGnjzzzYsf7bK20Zn-31" value="!y2 y3" style="text;html=1;strokeColor=none;fillColor=none;align=center;verticalAlign=middle;whiteSpace=wrap;rounded=0;" vertex="1" parent="1">
          <mxGeometry x="330" y="420" width="60" height="30" as="geometry" />
        </mxCell>
        <mxCell id="U6gbGnjzzzYsf7bK20Zn-32" value="x2" style="text;html=1;strokeColor=none;fillColor=none;align=center;verticalAlign=middle;whiteSpace=wrap;rounded=0;" vertex="1" parent="1">
          <mxGeometry x="180" y="300" width="60" height="30" as="geometry" />
        </mxCell>
        <mxCell id="U6gbGnjzzzYsf7bK20Zn-33" value="" style="curved=1;endArrow=classic;html=1;rounded=0;exitX=1;exitY=0;exitDx=0;exitDy=0;entryX=1;entryY=1;entryDx=0;entryDy=0;" edge="1" parent="1" source="U6gbGnjzzzYsf7bK20Zn-5" target="U6gbGnjzzzYsf7bK20Zn-3">
          <mxGeometry width="50" height="50" relative="1" as="geometry">
            <mxPoint x="220" y="380" as="sourcePoint" />
            <mxPoint x="210" y="360" as="targetPoint" />
            <Array as="points">
              <mxPoint x="240" y="380" />
            </Array>
          </mxGeometry>
        </mxCell>
        <mxCell id="U6gbGnjzzzYsf7bK20Zn-34" value="x4" style="text;html=1;strokeColor=none;fillColor=none;align=center;verticalAlign=middle;whiteSpace=wrap;rounded=0;" vertex="1" parent="1">
          <mxGeometry x="190" y="400" width="60" height="30" as="geometry" />
        </mxCell>
        <mxCell id="U6gbGnjzzzYsf7bK20Zn-35" value="!y3 y4" style="text;html=1;strokeColor=none;fillColor=none;align=center;verticalAlign=middle;whiteSpace=wrap;rounded=0;" vertex="1" parent="1">
          <mxGeometry x="200" y="330" width="60" height="30" as="geometry" />
        </mxCell>
        <mxCell id="U6gbGnjzzzYsf7bK20Zn-36" value="!y3 y4" style="text;html=1;strokeColor=none;fillColor=none;align=center;verticalAlign=middle;whiteSpace=wrap;rounded=0;" vertex="1" parent="1">
          <mxGeometry x="380" y="320" width="60" height="30" as="geometry" />
        </mxCell>
        <mxCell id="U6gbGnjzzzYsf7bK20Zn-37" value="" style="curved=1;endArrow=classic;html=1;rounded=0;exitX=0;exitY=0;exitDx=0;exitDy=0;entryX=0;entryY=1;entryDx=0;entryDy=0;" edge="1" parent="1" source="U6gbGnjzzzYsf7bK20Zn-4" target="U6gbGnjzzzYsf7bK20Zn-2">
          <mxGeometry width="50" height="50" relative="1" as="geometry">
            <mxPoint x="320" y="390" as="sourcePoint" />
            <mxPoint x="420" y="340" as="targetPoint" />
            <Array as="points">
              <mxPoint x="360" y="370" />
            </Array>
          </mxGeometry>
        </mxCell>
        <mxCell id="U6gbGnjzzzYsf7bK20Zn-38" value="x4" style="text;html=1;strokeColor=none;fillColor=none;align=center;verticalAlign=middle;whiteSpace=wrap;rounded=0;" vertex="1" parent="1">
          <mxGeometry x="370" y="400" width="60" height="30" as="geometry" />
        </mxCell>
        <mxCell id="U6gbGnjzzzYsf7bK20Zn-39" value="" style="endArrow=classic;html=1;rounded=0;exitX=0.5;exitY=1;exitDx=0;exitDy=0;entryX=0.5;entryY=0;entryDx=0;entryDy=0;" edge="1" parent="1" source="U6gbGnjzzzYsf7bK20Zn-4" target="U6gbGnjzzzYsf7bK20Zn-6">
          <mxGeometry width="50" height="50" relative="1" as="geometry">
            <mxPoint x="250" y="550" as="sourcePoint" />
            <mxPoint x="300" y="500" as="targetPoint" />
          </mxGeometry>
        </mxCell>
        <mxCell id="U6gbGnjzzzYsf7bK20Zn-40" value="" style="endArrow=classic;html=1;rounded=0;exitX=0.5;exitY=1;exitDx=0;exitDy=0;entryX=0.5;entryY=0;entryDx=0;entryDy=0;" edge="1" parent="1">
          <mxGeometry width="50" height="50" relative="1" as="geometry">
            <mxPoint x="180" y="480" as="sourcePoint" />
            <mxPoint x="180" y="600" as="targetPoint" />
          </mxGeometry>
        </mxCell>
        <mxCell id="U6gbGnjzzzYsf7bK20Zn-42" value="x5" style="text;html=1;strokeColor=none;fillColor=none;align=center;verticalAlign=middle;whiteSpace=wrap;rounded=0;" vertex="1" parent="1">
          <mxGeometry x="160" y="480" width="60" height="30" as="geometry" />
        </mxCell>
        <mxCell id="U6gbGnjzzzYsf7bK20Zn-43" value="x5" style="text;html=1;strokeColor=none;fillColor=none;align=center;verticalAlign=middle;whiteSpace=wrap;rounded=0;" vertex="1" parent="1">
          <mxGeometry x="410" y="480" width="60" height="30" as="geometry" />
        </mxCell>
        <mxCell id="U6gbGnjzzzYsf7bK20Zn-44" value="y5" style="text;html=1;strokeColor=none;fillColor=none;align=center;verticalAlign=middle;whiteSpace=wrap;rounded=0;" vertex="1" parent="1">
          <mxGeometry x="410" y="570" width="60" height="30" as="geometry" />
        </mxCell>
        <mxCell id="U6gbGnjzzzYsf7bK20Zn-45" value="y5" style="text;html=1;strokeColor=none;fillColor=none;align=center;verticalAlign=middle;whiteSpace=wrap;rounded=0;" vertex="1" parent="1">
          <mxGeometry x="170" y="569" width="60" height="30" as="geometry" />
        </mxCell>
        <mxCell id="U6gbGnjzzzYsf7bK20Zn-46" value="" style="curved=1;endArrow=classic;html=1;rounded=0;exitX=1;exitY=1;exitDx=0;exitDy=0;entryX=0;entryY=1;entryDx=0;entryDy=0;" edge="1" parent="1" source="U6gbGnjzzzYsf7bK20Zn-7" target="U6gbGnjzzzYsf7bK20Zn-7">
          <mxGeometry width="50" height="50" relative="1" as="geometry">
            <mxPoint x="50" y="634" as="sourcePoint" />
            <mxPoint x="100" y="584" as="targetPoint" />
            <Array as="points">
              <mxPoint x="220" y="670" />
              <mxPoint x="150" y="670" />
            </Array>
          </mxGeometry>
        </mxCell>
        <mxCell id="U6gbGnjzzzYsf7bK20Zn-47" value="" style="curved=1;endArrow=classic;html=1;rounded=0;exitX=0;exitY=1;exitDx=0;exitDy=0;entryX=1;entryY=1;entryDx=0;entryDy=0;" edge="1" parent="1" source="U6gbGnjzzzYsf7bK20Zn-6" target="U6gbGnjzzzYsf7bK20Zn-6">
          <mxGeometry width="50" height="50" relative="1" as="geometry">
            <mxPoint x="330" y="649" as="sourcePoint" />
            <mxPoint x="380" y="599" as="targetPoint" />
            <Array as="points">
              <mxPoint x="400" y="670" />
              <mxPoint x="460" y="680" />
            </Array>
          </mxGeometry>
        </mxCell>
        <mxCell id="U6gbGnjzzzYsf7bK20Zn-48" value="" style="curved=1;endArrow=classic;html=1;rounded=0;exitX=0;exitY=0;exitDx=0;exitDy=0;entryX=0;entryY=0;entryDx=0;entryDy=0;" edge="1" parent="1" source="U6gbGnjzzzYsf7bK20Zn-7" target="U6gbGnjzzzYsf7bK20Zn-3">
          <mxGeometry width="50" height="50" relative="1" as="geometry">
            <mxPoint x="210" y="584.5" as="sourcePoint" />
            <mxPoint x="260" y="534.5" as="targetPoint" />
            <Array as="points">
              <mxPoint x="100" y="585" />
              <mxPoint x="60" y="250" />
            </Array>
          </mxGeometry>
        </mxCell>
        <mxCell id="U6gbGnjzzzYsf7bK20Zn-49" value="" style="curved=1;endArrow=classic;html=1;rounded=0;exitX=1;exitY=0;exitDx=0;exitDy=0;entryX=1;entryY=0.5;entryDx=0;entryDy=0;" edge="1" parent="1" source="U6gbGnjzzzYsf7bK20Zn-6" target="U6gbGnjzzzYsf7bK20Zn-2">
          <mxGeometry width="50" height="50" relative="1" as="geometry">
            <mxPoint x="320" y="585" as="sourcePoint" />
            <mxPoint x="370" y="535" as="targetPoint" />
            <Array as="points">
              <mxPoint x="520" y="600" />
              <mxPoint x="560" y="370" />
            </Array>
          </mxGeometry>
        </mxCell>
        <mxCell id="U6gbGnjzzzYsf7bK20Zn-50" value="x4" style="text;html=1;strokeColor=none;fillColor=none;align=center;verticalAlign=middle;whiteSpace=wrap;rounded=0;" vertex="1" parent="1">
          <mxGeometry x="110" y="584" width="60" height="30" as="geometry" />
        </mxCell>
        <mxCell id="U6gbGnjzzzYsf7bK20Zn-51" value="x4" style="text;html=1;strokeColor=none;fillColor=none;align=center;verticalAlign=middle;whiteSpace=wrap;rounded=0;" vertex="1" parent="1">
          <mxGeometry x="430" y="594" width="60" height="30" as="geometry" />
        </mxCell>
        <mxCell id="U6gbGnjzzzYsf7bK20Zn-52" value="y4" style="text;html=1;strokeColor=none;fillColor=none;align=center;verticalAlign=middle;whiteSpace=wrap;rounded=0;" vertex="1" parent="1">
          <mxGeometry x="60" y="260" width="60" height="30" as="geometry" />
        </mxCell>
        <mxCell id="U6gbGnjzzzYsf7bK20Zn-53" value="y4" style="text;html=1;strokeColor=none;fillColor=none;align=center;verticalAlign=middle;whiteSpace=wrap;rounded=0;" vertex="1" parent="1">
          <mxGeometry x="470" y="310" width="60" height="30" as="geometry" />
        </mxCell>
        <mxCell id="U6gbGnjzzzYsf7bK20Zn-54" value="x1 V x2 V x3 V&amp;nbsp; x5" style="text;html=1;strokeColor=none;fillColor=none;align=center;verticalAlign=middle;whiteSpace=wrap;rounded=0;" vertex="1" parent="1">
          <mxGeometry x="160" y="670" width="60" height="30" as="geometry" />
        </mxCell>
        <mxCell id="U6gbGnjzzzYsf7bK20Zn-55" value="x1 V x2 V x3 V&amp;nbsp; x5" style="text;html=1;strokeColor=none;fillColor=none;align=center;verticalAlign=middle;whiteSpace=wrap;rounded=0;" vertex="1" parent="1">
          <mxGeometry x="400" y="680" width="60" height="30" as="geometry" />
        </mxCell>
        <mxCell id="U6gbGnjzzzYsf7bK20Zn-57" value="" style="curved=1;endArrow=classic;html=1;rounded=0;exitX=0;exitY=1;exitDx=0;exitDy=0;entryX=0;entryY=0;entryDx=0;entryDy=0;" edge="1" parent="1" source="U6gbGnjzzzYsf7bK20Zn-5" target="U6gbGnjzzzYsf7bK20Zn-5">
          <mxGeometry width="50" height="50" relative="1" as="geometry">
            <mxPoint x="200" y="480" as="sourcePoint" />
            <mxPoint x="250" y="430" as="targetPoint" />
            <Array as="points">
              <mxPoint x="140" y="500" />
              <mxPoint x="110" y="470" />
            </Array>
          </mxGeometry>
        </mxCell>
        <mxCell id="U6gbGnjzzzYsf7bK20Zn-58" value="y1" style="text;html=1;strokeColor=none;fillColor=none;align=center;verticalAlign=middle;whiteSpace=wrap;rounded=0;" vertex="1" parent="1">
          <mxGeometry x="90" y="445" width="60" height="30" as="geometry" />
        </mxCell>
        <mxCell id="U6gbGnjzzzYsf7bK20Zn-60" value="x1" style="text;html=1;strokeColor=none;fillColor=none;align=center;verticalAlign=middle;whiteSpace=wrap;rounded=0;" vertex="1" parent="1">
          <mxGeometry x="130" y="480" width="60" height="30" as="geometry" />
        </mxCell>
        <mxCell id="U6gbGnjzzzYsf7bK20Zn-61" value="" style="curved=1;endArrow=classic;html=1;rounded=0;exitX=1;exitY=1;exitDx=0;exitDy=0;entryX=1;entryY=0.5;entryDx=0;entryDy=0;" edge="1" parent="1" source="U6gbGnjzzzYsf7bK20Zn-4" target="U6gbGnjzzzYsf7bK20Zn-4">
          <mxGeometry width="50" height="50" relative="1" as="geometry">
            <mxPoint x="340" y="480" as="sourcePoint" />
            <mxPoint x="390" y="430" as="targetPoint" />
            <Array as="points">
              <mxPoint x="480" y="490" />
              <mxPoint x="490" y="460" />
            </Array>
          </mxGeometry>
        </mxCell>
        <mxCell id="U6gbGnjzzzYsf7bK20Zn-62" value="x1" style="text;html=1;strokeColor=none;fillColor=none;align=center;verticalAlign=middle;whiteSpace=wrap;rounded=0;" vertex="1" parent="1">
          <mxGeometry x="440" y="475" width="60" height="30" as="geometry" />
        </mxCell>
        <mxCell id="U6gbGnjzzzYsf7bK20Zn-63" value="y1" style="text;html=1;strokeColor=none;fillColor=none;align=center;verticalAlign=middle;whiteSpace=wrap;rounded=0;" vertex="1" parent="1">
          <mxGeometry x="460" y="440" width="60" height="30" as="geometry" />
        </mxCell>
        <mxCell id="U6gbGnjzzzYsf7bK20Zn-64" value="" style="endArrow=classic;html=1;rounded=0;exitX=0;exitY=0.5;exitDx=0;exitDy=0;entryX=1;entryY=0.5;entryDx=0;entryDy=0;" edge="1" parent="1" source="U6gbGnjzzzYsf7bK20Zn-4" target="U6gbGnjzzzYsf7bK20Zn-5">
          <mxGeometry width="50" height="50" relative="1" as="geometry">
            <mxPoint x="300" y="480" as="sourcePoint" />
            <mxPoint x="350" y="430" as="targetPoint" />
          </mxGeometry>
        </mxCell>
        <mxCell id="U6gbGnjzzzYsf7bK20Zn-65" value="x3" style="text;html=1;strokeColor=none;fillColor=none;align=center;verticalAlign=middle;whiteSpace=wrap;rounded=0;" vertex="1" parent="1">
          <mxGeometry x="340" y="450" width="60" height="30" as="geometry" />
        </mxCell>
        <mxCell id="U6gbGnjzzzYsf7bK20Zn-66" value="y2y3" style="text;html=1;strokeColor=none;fillColor=none;align=center;verticalAlign=middle;whiteSpace=wrap;rounded=0;" vertex="1" parent="1">
          <mxGeometry x="200" y="450" width="60" height="30" as="geometry" />
        </mxCell>
        <mxCell id="U6gbGnjzzzYsf7bK20Zn-67" value="" style="curved=1;endArrow=classic;html=1;rounded=0;exitX=1;exitY=1;exitDx=0;exitDy=0;entryX=0;entryY=1;entryDx=0;entryDy=0;" edge="1" parent="1" source="U6gbGnjzzzYsf7bK20Zn-5" target="U6gbGnjzzzYsf7bK20Zn-4">
          <mxGeometry width="50" height="50" relative="1" as="geometry">
            <mxPoint x="260" y="460" as="sourcePoint" />
            <mxPoint x="310" y="410" as="targetPoint" />
            <Array as="points">
              <mxPoint x="240" y="500" />
              <mxPoint x="360" y="520" />
            </Array>
          </mxGeometry>
        </mxCell>
        <mxCell id="U6gbGnjzzzYsf7bK20Zn-68" value="x2" style="text;html=1;strokeColor=none;fillColor=none;align=center;verticalAlign=middle;whiteSpace=wrap;rounded=0;" vertex="1" parent="1">
          <mxGeometry x="210" y="490" width="60" height="30" as="geometry" />
        </mxCell>
        <mxCell id="U6gbGnjzzzYsf7bK20Zn-69" value="!y2 y3" style="text;html=1;strokeColor=none;fillColor=none;align=center;verticalAlign=middle;whiteSpace=wrap;rounded=0;" vertex="1" parent="1">
          <mxGeometry x="354" y="490" width="60" height="30" as="geometry" />
        </mxCell>
      </root>
    </mxGraphModel>
  </diagram>
</mxfile>
